<?xml version="1.0" encoding="utf-8"?>
<!-- Svg Vector Icons : http://www.sfont.cn -->
<!DOCTYPE svg PUBLIC "-//W3C//DTD SVG 1.1//EN" "http://www.w3.org/Graphics/SVG/1.1/DTD/svg11.dtd">
<svg version="1.1" xmlns="http://www.w3.org/2000/svg" xmlns:xlink="http://www.w3.org/1999/xlink" x="0px" y="0px" viewBox="0 0 1000 1000" enable-background="new 0 0 1000 1000" xml:space="preserve">
<metadata> Svg Vector Icons : http://www.sfont.cn </metadata>
<g><g transform="translate(0.000000,511.000000) scale(0.100000,-0.100000)"><path d="M5647.8,4060.1l-596.9-590.3L4380,3927.2c-370.3,250.5-688.4,455.3-708,455.3s-823.4-287.5-1786.3-636.1C397.9,3204,132.2,3101.6,112.6,3058.1c-15.3-34.9-17.4-63.2-2.2-85c13.1-19.6,328.9-235.3,705.8-477.1c376.9-244,688.4-450.9,692.7-461.8c2.2-10.9-209.1-372.5-474.9-806C770.5,796.9,554.8,430.9,554.8,411.3c0-52.3,50.1-80.6,466.2-276.7l394.3-187.3l6.5-1276.5c4.4-1180.7,6.5-1276.5,43.6-1307c19.6-17.4,864.8-418.3,1877.8-888.8c1012.9-470.5,1849.4-864.8,1860.3-873.5c13.1-10.9,37-19.6,56.7-19.6c19.6,0,862.6,400.8,1873.4,888.8l1840.7,888.8l10.9,1296.1L8996-50.5L9375,147.8c337.6,176.5,437.8,244,437.8,291.9c0,8.7-235.3,385.6-522.8,840.8l-525,825.6l115.4,106.7C9268.3,2574.5,9900,3217.1,9900,3249.7c0,21.8-15.2,52.3-34.8,67.5c-39.2,32.7-3463.6,1300.5-3563.8,1320.1C6249.1,4646.1,6181.5,4587.3,5647.8,4060.1z M7961.3,3805.2c880.1-322.4,1605.5-588.2,1612-592.5c10.9-10.9-490.1-514.1-766.8-773.3L8593,2243.3l-1649,562c-908.4,307.2-1655.6,564.2-1662.1,568.6c-19.6,17.4,1023.8,1034.7,1050,1026C6347.1,4393.4,7081.2,4127.6,7961.3,3805.2z M4275.4,3739.9c298.4-202.6,538.1-376.9,531.5-383.4c-19.6-17.4-3030.1-1137.1-3088.9-1148c-32.7-6.5-228.7,108.9-649.1,381.2c-331.1,213.5-601.2,392.1-601.2,398.6s712.3,272.3,1583.7,590.3c1322.3,483.6,1592.4,575.1,1631.6,555.5C3706.9,4121.1,3974.8,3944.6,4275.4,3739.9z M6713.1,2657.2c890.9-302.8,1618.5-555.5,1618.5-562c0-15.3-3001.8-1577.1-3047.5-1585.8c-30.5-4.4-3256.7,1500.9-3298,1540.1c-17.4,17.4,2993.1,1152.4,3067.1,1154.5C5077.1,3206.2,5824.3,2960,6713.1,2657.2z M9061.3,1241.3c252.7-398.6,459.6-734.1,464-747.2c4.4-19.6-3112.9-1657.7-3147.7-1653.4c-30.5,4.3-941.1,1479.1-925.8,1494.4c24,24,3106.4,1627.2,3130.3,1627.2C8595.2,1962.3,8810.8,1637.8,9061.3,1241.3z M3406.3,1134.6c917.1-431.3,1677.3-792.9,1688.2-803.8c13.1-13.1-806-1361.5-877.9-1442.1c-6.5-8.7-766.8,339.8-1690.4,775.5C1306.3,239.2,848.9,463.6,851.1,487.6c2.2,19.6,172.1,313.7,381.2,653.5c492.3,806,474.9,779.9,492.3,779.9C1731.1,1920.9,2489.2,1568,3406.3,1134.6z M5166.4-4128.4c-4.4-2.2-799.5,363.8-1764.5,814.7L1644-2494.6v1161.1c0,640.4,4.4,1163.2,10.9,1163.2c4.4,0,583.8-270.1,1285.2-599.1c701.4-328.9,1293.9-599,1317.9-599c54.5,0,78.4,34.9,525,749.4l379,605.6l6.5-2052C5170.8-3196.1,5170.8-4124.1,5166.4-4128.4z M5848.2-741c368.2-594.7,422.6-670.9,472.7-670.9c30.5,0,592.5,278.8,1248.2,620.8c655.7,342,1200.3,620.8,1206.8,620.8c6.5,0,13.1-518.5,13.1-1152.4c0-895.3-6.5-1156.7-26.1-1174.2c-15.3-10.9-742.8-366-1618.5-788.6c-873.5-422.6-1627.2-786.4-1670.8-808.2l-82.8-41.4v2052c0,1191.6,8.7,2043.3,19.6,2032.4C5421.3-63.6,5617.3-372.9,5848.2-741z"/></g></g>
</svg>