<?xml version="1.0" encoding="utf-8"?>
<!-- Svg Vector Icons : http://www.sfont.cn -->
<!DOCTYPE svg PUBLIC "-//W3C//DTD SVG 1.1//EN" "http://www.w3.org/Graphics/SVG/1.1/DTD/svg11.dtd">
<svg version="1.1" xmlns="http://www.w3.org/2000/svg" xmlns:xlink="http://www.w3.org/1999/xlink" x="0px" y="0px" viewBox="0 0 1000 1000" enable-background="new 0 0 1000 1000" xml:space="preserve">
<metadata> Svg Vector Icons : http://www.sfont.cn </metadata>
<g><path d="M786.7,611.3c95.5,0,172.9,77.9,172.9,173.9s-77.4,173.9-172.9,173.9c-95.5,0-172.9-77.9-172.9-173.9S691.2,611.3,786.7,611.3L786.7,611.3z M873,768.7v-66.6l-111,99.5l-61.4-55.3V813l61.4,55.2L873,768.7z M952.8,352.4c0.2-4.9-1.3-9.3-4.7-12.9c-1.1-3.4-3-6.5-5.9-8.6L503.9,18.3c-3-2.1-6.4-3.3-10-3.3L245,10c-7.9-0.2-14.9,4.9-17.4,12.3c-2.5,7.5,0.2,15.8,6.6,20.3l113.7,81.1l-54.3,39.5c-1.9,0.5-3.9,1.3-5.6,2.6L49,339.2c-4.7,3.4-7.4,8.9-7.4,14.8v0.3l-1.2,0.6v304.5l7.7,14.6l438.2,312.6l0.8-0.4c0.8,0.6,1.4,1.2,2.4,1.7c2.6,1.3,5.5,2,8.3,2c3.6,0,7.3-1.1,10.3-3.4L615.6,910c-7-9.8-13.2-20.1-18.6-31l-81.3,58V676.7l402.2-286.9v229.3c6.3,5.1,12.4,10.5,18.2,16.4c6.3,6.4,12.3,13.1,17.7,20.2V354.8C953.7,354,953,353.3,952.8,352.4L952.8,352.4L952.8,352.4z M302.5,47.1l185.2,3.7l386.3,275.4l-185.2-3.7L302.5,47.1L302.5,47.1z M478.6,937.1L76.2,650.2V389.8l402.3,286.9V937.1L478.6,937.1z M497.6,644.3l195.5-141.8L285.7,211.9L90.3,353.8L497.6,644.3L497.6,644.3z M421.9,696.3v141.1L115.2,618.6V477.5L421.9,696.3L421.9,696.3z"/></g>
</svg>