<?xml version="1.0" encoding="utf-8"?>
<!-- Svg Vector Icons : http://www.sfont.cn -->
<!DOCTYPE svg PUBLIC "-//W3C//DTD SVG 1.1//EN" "http://www.w3.org/Graphics/SVG/1.1/DTD/svg11.dtd">
<svg version="1.1" xmlns="http://www.w3.org/2000/svg" xmlns:xlink="http://www.w3.org/1999/xlink" x="0px" y="0px" viewBox="0 0 1000 1000" enable-background="new 0 0 1000 1000" xml:space="preserve">
<metadata> Svg Vector Icons : http://www.sfont.cn </metadata>
<g><path d="M10.6,569.4c0-94.1,1.1-188.3-0.6-282.4c-0.6-33.9,10.6-58.5,35.8-79.6c53.4-44.6,106.4-89.6,158.6-135.7c21-18.6,43.8-25.5,71.1-25.4c114.7,0.6,229.4-0.9,344.1,0.4c66.3,0.7,88.2,24.3,90.6,92.3c1.2,28.4,0.9,57-1.9,85.2c-0.7,8.2-12.2,15.3-18.8,22.9c-6.9-7.1-18.4-13.6-19.6-21.6c-3.4-21.4-1.8-43.6-2.9-65.4c-2.9-57.5-9.7-65.4-64.3-66.1c-86.6-1.2-173.1-1.3-259.8-0.4c-52.1,0.5-58.1,7.2-59.8,61.7c-1.3,41.6,0.6,83.2-1.2,124.7c-1.7,39.1-7.9,44.2-46.4,47.3c-8.6,0.7-17.3,1-26,0.1c-20.1-1.9-50.3,6.9-51.1-23.9c-0.7-26.7,28.4-19.9,46.2-23.2c19.3-3.6,33.1-13,33.9-33.5c1.2-32.7,1.9-65.7-0.1-98.3c-1.4-21.5-17.5-24.9-32.6-13.8c-29.7,21.8-56.4,47.8-86.6,68.7c-49.7,34.3-65.1,79.2-63.7,139.9c3.9,161.9,1.1,323.9,1.5,485.9c0.2,71.3,9.1,80.9,77.4,81.1c151.5,0.6,303-0.3,454.5,0.1c33.5,0.1,65,0.6,81.3-38c2.5-6,20.7-11.6,26.1-8.2c6.9,4.2,13.7,20.1,10.8,26.9c-6.9,17.1-16.1,37.2-30.5,46.2c-17.1,10.8-40.6,15.4-61.4,15.5c-168.8,1.3-337.7,0.7-506.5,0.7c-2.2,0-4.4-0.1-6.5-0.3c-62.2-4.5-90.3-32.1-91.1-95.1C9.8,762,10.7,665.7,10.6,569.4z"/><path d="M990,553.6c-8,120.6-88.9,234.3-237.9,238.9c-130.9,4.1-242-111.1-239.7-242.6c2.4-133.1,113.7-245,243.4-238.9C887,317.2,982.5,413.1,990,553.6z M753.3,357.1c-109.9,0.5-191.9,84.6-196.5,193.7c-4.4,102.2,93.3,198,194.3,197.5c102.6-0.4,193.4-94,192.8-198.7C943.2,446.8,854.9,357.6,753.3,357.1z"/><path d="M360.4,466.4c21.3,0,42.9-2.1,63.9,0.9c9.7,1.4,17.9,12.8,26.8,19.8c-8.9,7.8-17.2,21.4-26.8,22.4c-31.7,3.2-63.9,2.2-96,2.1c-16.9-0.1-34.5,0.3-50.7-3.9c-7.5-2-14.5-13.8-17.1-22.5c-1-3.6,10.3-14.9,16.7-15.7c27.5-3.2,55.3-3.8,82.9-5.3C360.3,465,360.3,465.7,360.4,466.4z"/><path d="M388.1,763c-32.3,0-64.9,1.5-97.1-1.1c-9.7-0.7-18.4-13.3-27.6-20.6c8.1-5.8,16.1-16.5,24.3-16.7c62.6-1.5,125.2-0.9,187.8-0.8c4.2,0,9.8,0.5,12.3,3.2c6.7,6.9,12,15.4,17.9,23.3c-6.9,4.2-13.6,11.9-20.5,12.2c-32.4,1.4-64.8,0.6-97.2,0.6C388.1,763,388.1,763,388.1,763z"/><path d="M353.9,639.2c-23.7-1.1-47.7-0.4-71.2-4.1c-7.7-1.3-15.5-12.4-19.6-20.8c-1.2-2.5,10.2-16.2,16.1-16.5c49.6-1.4,99.2-1.5,148.8-0.3c5.8,0.3,17.3,13.4,16,16.3c-3.5,8.7-11.5,20.4-18.9,21.4c-23.4,2.6-47.4,1-71.2,1C353.9,637.1,353.9,638.2,353.9,639.2z"/><path d="M675.4,542.5c8.3,3.8,15.9,7.2,23.6,10.7c42.9,19.6,42.9,19.7,73.3-17.9c14.9-18.5,28-38.9,45.2-55c6.5-6.1,21.8-2.7,33.1-3.6c0.4,9.9,4.9,22.9,0.5,29.2c-29,40.5-59,80.2-90.8,118.4c-6,7.1-25.3,11.9-32.1,7.5c-23.2-15.1-44.3-33.9-64.6-53.1c-4.6-4.3-4.4-16.3-3-23.9C661.6,550.2,669.7,547,675.4,542.5z"/></g>
</svg>