<?xml version="1.0" encoding="utf-8"?>
<!-- Svg Vector Icons : http://www.sfont.cn -->
<!DOCTYPE svg PUBLIC "-//W3C//DTD SVG 1.1//EN" "http://www.w3.org/Graphics/SVG/1.1/DTD/svg11.dtd">
<svg version="1.1" xmlns="http://www.w3.org/2000/svg" xmlns:xlink="http://www.w3.org/1999/xlink" x="0px" y="0px" viewBox="0 0 1000 1000" enable-background="new 0 0 1000 1000" xml:space="preserve">
<metadata> Svg Vector Icons : http://www.sfont.cn </metadata>
<g><g><path d="M507.4,80h-21.6c-11.5,0-20.9-9.3-20.9-20.9v-0.7c0-26.8-21.7-48.4-48.4-48.4h-1.1C388.7,10,367,31.7,367,58.4v0.7c0,11.5-9.3,20.9-20.9,20.9h-21.6c-23,0-41.6,18.6-41.6,41.6v0.8c0,23,18.6,41.6,41.6,41.6h182.8c23,0,41.6-18.6,41.6-41.6v-0.8C549,98.6,530.4,80,507.4,80z M416,80c-11.6,0-21-9.4-21-21c0-11.6,9.4-21,21-21c11.6,0,21,9.4,21,21S427.6,80,416,80z M509.5,892H157c-30.9,0-56-25.1-56-56V164c0-30.9,25.1-56,42-56h113.5c-0.9,4.6-1.5,9.5-1.5,14.4c0,38.4,31.2,69.6,69.6,69.6h182.8c38.4,0,69.6-31.2,69.6-70.4c0-4.6-0.5-9.2-1.4-13.6H661c44.9,0,70,25.1,70,56v420.7c-4.7-0.3-9.3-0.7-14-0.7c-19.4,0-38.1,2.7-56,7.4V262H171v560h322.7C495.2,846.6,500.6,870.2,509.5,892z M717,626c-100.5,0-182,81.5-182,182c0,100.5,81.5,182,182,182c100.5,0,182-81.5,182-182C899,707.5,817.5,626,717,626z M835.9,770.6l-112,126c-5.5,6.2-13.2,9.4-20.9,9.4c-6.1,0-12.3-2-17.5-6.1l-70-56c-12.1-9.7-14-27.3-4.4-39.3c9.7-12.1,27.3-14,39.4-4.4l49.2,39.4l94.3-106.1c10.3-11.6,28-12.6,39.5-2.3C845.2,741.3,846.2,759,835.9,770.6z M591,500H367c-7.7,0-14-6.3-14-14v-14c0-7.7,6.3-14,14-14h224c7.7,0,14,6.3,14,14v14C605,493.7,598.7,500,591,500z M591,374H367c-7.7,0-14-6.3-14-14v-14c0-7.7,6.3-14,14-14h224c7.7,0,14,6.3,14,14v14C605,367.7,598.7,374,591,374z M521,612H367c-7.7,0-14-6.3-14-14v-14c0-7.7,6.3-14,14-14h154c7.7,0,14,6.3,14,14v14C535,605.7,528.7,612,521,612z M493,738H367c-7.7,0-14-6.3-14-14v-14c0-7.7,6.3-14,14-14h126c7.7,0,14,6.3,14,14v14C507,731.7,500.7,738,493,738z M326.2,322.2l-51.6,58c-2.5,2.9-6.1,4.3-9.6,4.3c-2.8,0-5.7-0.9-8-2.8l-32.2-25.8c-5.6-4.4-6.5-12.6-2-18.1c4.4-5.6,12.6-6.5,18.1-2l22.7,18.1l43.4-48.9c4.7-5.3,12.9-5.8,18.2-1.1C330.4,308.8,330.9,316.9,326.2,322.2z M326.2,446.8l-51.6,58c-2.5,2.9-6.1,4.3-9.6,4.3c-2.8,0-5.7-0.9-8-2.8l-32.2-25.8c-5.6-4.4-6.5-12.6-2-18.1c4.4-5.6,12.6-6.5,18.1-2l22.7,18.1l43.4-48.9c4.7-5.3,12.9-5.8,18.2-1.1C330.4,433.3,330.9,441.5,326.2,446.8z M326.2,565.9l-51.6,58c-2.5,2.9-6.1,4.3-9.6,4.3c-2.8,0-5.7-0.9-8-2.8l-32.2-25.8c-5.6-4.4-6.5-12.6-2-18.1c4.4-5.6,12.6-6.5,18.1-2l22.7,18.1l43.4-48.9c4.7-5.3,12.9-5.8,18.2-1.1C330.4,552.4,330.9,560.6,326.2,565.9z M326.2,685.9l-51.6,58c-2.5,2.9-6.1,4.3-9.6,4.3c-2.8,0-5.7-0.9-8-2.8l-32.2-25.8c-5.6-4.4-6.5-12.6-2-18.1c4.4-5.6,12.6-6.5,18.1-2l22.7,18.1l43.4-48.9c4.7-5.3,12.9-5.8,18.2-1.1C330.4,672.4,330.9,680.5,326.2,685.9z"/></g><g></g><g></g><g></g><g></g><g></g><g></g><g></g><g></g><g></g><g></g><g></g><g></g><g></g><g></g><g></g></g>
</svg>