<?xml version="1.0" encoding="utf-8"?>
<!-- Svg Vector Icons : http://www.sfont.cn -->
<!DOCTYPE svg PUBLIC "-//W3C//DTD SVG 1.1//EN" "http://www.w3.org/Graphics/SVG/1.1/DTD/svg11.dtd">
<svg version="1.1" xmlns="http://www.w3.org/2000/svg" xmlns:xlink="http://www.w3.org/1999/xlink" x="0px" y="0px" viewBox="0 0 1000 1000" enable-background="new 0 0 1000 1000" xml:space="preserve">
<metadata> Svg Vector Icons : http://www.sfont.cn </metadata>
<g><path d="M255.4,229.2c-17.6,0-32,14.4-32,32v479.2c0,67.7,61,129.3,127.9,129.3l329-0.3l9.1-0.7v-2.4c11.5-4.9,19.1-15.9,19.1-28.6c0-12.8-7.7-23.8-19.1-28.7v-3.1H337.1c-24.3,0-50.4-38.5-50.4-65.6l0-474.4c0.3-1,0.8-2.7,0.8-4.8C287.5,243.6,273.1,229.2,255.4,229.2 M734.4,871.1c-12.1,0-22.6,7.4-27,18.7l-1.3,2.7c-20.5,41.7-35.3,35.7-50.7,34.5c-4.1-0.3-8.2-0.6-12.4-0.6H202.9c-26,0-64.6-39.3-64.6-65.6V286c0-23.9,31.2-59,56.5-63.6l7.4-2v-0.1C215,216,224,204.1,224,190.1c0-13.7-8.7-25.4-21.1-29.8l0.5-4.2l-10.3,2.1H192c-2.1,0-3.8,0.5-5,0.8C125.3,165.3,74.9,222.4,74.9,286v574.7c0,67.6,61,129.3,127.9,129.3h445.8c61.2,0,98-25.3,111.6-75.4c2.5-4.7,3.7-9.2,3.7-13.8C763.9,884.4,750.7,871.1,734.4,871.1 M440.6,479.6H708c21.4,0,38.8-16.7,38.8-37.3c0-20.7-17.4-37.5-38.8-37.5H440.6c-21.5,0-38.9,16.8-38.9,37.5C401.8,462.8,419.2,479.6,440.6,479.6 M714.9,14.1l-2.7-3.1H708c-3.7,0-356.6-1-356.6-1c-63.3,0-118.6,48-125.9,109.1c-0.2,1.1-0.7,2.6-0.7,5.1l0.1,9.1h1.4c4,13,16.2,22.5,30.4,22.5c16.4,0,30.1-12.6,31.8-28.7l0.2-0.8c6.1-24.9,27.5-52.6,48.4-52.6h316.7c-0.3,65.9,0.1,126.5,0.1,126.5c0,68.2,45.6,113.9,113.6,113.9h94.4v426.4c0.1,19.2-6,35.5-17.8,47.4c-11.2,11.3-27.3,18-44,18h0l-9.3,0.1v2c-12.3,4.4-21.1,16.1-21.1,29.7c0,14.2,9.6,26.3,22.9,30.1l0.3,1.3l8.4,0.2c2,0,3.5-0.4,3.8-0.6c64-4.6,120.1-64.6,120.1-128.4V256.8L714.9,14.1L714.9,14.1z M837.3,251.1h-69.9c-24.5,0-50.3-52.7-50.3-81v-64.8L837.3,251.1L837.3,251.1z M440.6,621.2H708c21.4,0,38.8-16.9,38.8-37.5c0-20.6-17.4-37.4-38.8-37.4H440.6c-21.5,0-38.9,16.7-38.9,37.4C401.8,604.4,419.2,621.2,440.6,621.2"/></g>
</svg>