<?xml version="1.0" encoding="utf-8"?>
<!-- Svg Vector Icons : http://www.sfont.cn -->
<!DOCTYPE svg PUBLIC "-//W3C//DTD SVG 1.1//EN" "http://www.w3.org/Graphics/SVG/1.1/DTD/svg11.dtd">
<svg version="1.1" xmlns="http://www.w3.org/2000/svg" xmlns:xlink="http://www.w3.org/1999/xlink" x="0px" y="0px" viewBox="0 0 1000 1000" enable-background="new 0 0 1000 1000" xml:space="preserve">
<metadata> Svg Vector Icons : http://www.sfont.cn </metadata>
<g><path d="M537.6,10c-2.8,3.2-6.9,2-10.1,2c-108.2,0-216.8,0-325.1,0c-3.2,0-7.3,1.6-10.1-2C307.5,10,422.6,10,537.6,10z"/><path d="M954.8,718.3c-17.8-59-54.5-103-109-131.2c-10.9-5.7-13.7-11.7-13.7-23.4c0.4-114.3,0-229,0.4-343.2c0-14.5-4.4-25-14.9-35.5C763,131.1,709.3,77,655.2,22.5c-5.2-5.2-10.5-9.7-17.4-12.5c-33.5,0-66.6,0-100.1,0c-3.2,1.6-6.5,0.8-9.7,0.8c-108.6,0-217.2,0-326.3,0c-3.2,0-6.5,0.8-9.7-0.8c-4.4,0-9.3,0-13.7,0c-10.5,3.2-21.8,2-32.7,5.7C90.2,34.6,41,90.8,41,161.4c-0.4,198.7,0,397.7,0,596.4c0,52.5,22.2,93.7,62.2,126.4c29.5,24.2,63.8,33.9,101,33.9c66.2,0.8,132.9,0,199.1,0c56.9,0,113.9,0,170.8,0c8.1,0,14.5,2.4,19.8,8.1c6.9,7.3,13.7,14.9,22.2,21c32.7,24.6,68.6,41.2,110.6,42c25,0.4,50.9,2.8,75.1-3.6c66.6-17,113.9-58.6,143.3-120.7c9.3-19.8,12.5-41.2,14.1-62.6c0-15.7,0-31.5,0-47.2C956.8,743.3,958.4,730.4,954.8,718.3z M620,96c48.1,48.1,95.7,95.7,144.2,144.2c-27.1-1.2-53.7,2.4-80.4-2c-36.3-6.1-63-37.6-63.4-74.3C619.6,141.2,620,118.2,620,96z M219.9,643.2c-20.2,0-23.8,3.6-23.8,23c0,6.5,0,12.9,0,19.8c0.4,11.7,5.7,17,17.8,17.4c18.6,0,37.1,0,55.7,0c90.5,0,181.3,0,271.8,0c2.8,0,5.7,0,9.7,0c-8.5,25-13.7,50.1-13.7,75.5c0,25.4,4.8,50.1,13.7,75.1c-4,0-7.7,0-10.9,0c-110.6,0-221.7,0-332.3,0c-61.4,0-102.2-40.4-102.2-101.8c0-193,0-385.6,0-578.6c0-61.4,40.4-102.2,101.8-102.2c113.1,0,226.1,0,339.2-0.4c8.5,0,10.9,1.6,10.9,10.5C557,127.1,557,172.3,557,218c0,49.7,33.5,82.8,83.2,82.8c39.6,0,79.1,0,118.7,0c6.9,0,8.5,2,8.5,8.9c-0.4,83.2-0.4,166.8,0,250c0,7.7-2,8.9-9.3,8.5c-65.8-2-121.5,20.6-166,69.5c-4,4-7.7,6.1-13.3,6.1C459.3,642.8,339.4,642.8,219.9,643.2z M745.2,942.4c-89.6-1.2-161.5-76.3-160.7-167.6c0.8-89.2,75.9-162.3,166-161.5c91.3,0.8,164.3,75.5,163.1,167.2C912.8,871.7,837.7,943.6,745.2,942.4z"/><path d="M436.7,402.1c-72.7,0-145,0-217.6,0c-18.2,0-22.2-4.4-22.2-22.6c0-7.3-0.4-14.5,0-21.4c0.4-10.1,6.1-15.3,16.2-16.2c2,0,4,0,6.1,0c145.8,0,291.5,0,437.3,0c18.2,0,22.2,4.4,22.2,22.6c0,6.1,0,12.5,0,18.6c0,13.7-5.7,19-19.4,19c-56.5,0-113.1,0-169.6,0C471.8,402.1,454.1,402.1,436.7,402.1z"/><path d="M436.7,552.7c-72.3,0-144.6,0-216.4,0c-20.2,0-23.8-3.6-23.8-24.2c0-6.5,0-12.9,0-19.8c0.4-10.5,5.7-15.7,16.6-16.2c2,0,4,0,6.1,0c145.4,0,290.7,0,436.1,0c19,0,22.6,3.6,22.6,23c0,6.5,0,12.9,0,19.8c-0.4,11.7-5.7,17.4-17.4,17.4c-18.2,0.4-36.7,0-54.9,0C549,552.7,492.8,552.7,436.7,552.7z"/><path d="M748.8,821.2c-12.1-3.2-23-2.4-30.7,8.9c-3.6,0-2.8-2.8-2.8-4.8c0-62.2,0-124,0-186.2c0-0.8,0.4-1.2,0.4-2c4.4-9.7,10.9-14.1,19.4-12.1c8.9,2,14.5,8.1,14.5,17.4c0,58.6,0,116.7,0,175.3C749.6,819.2,748.8,820.4,748.8,821.2C748.8,821.6,748.8,821.2,748.8,821.2z"/><path d="M748.8,821.6c2-0.4,3.6-1.2,5.7-1.2c37.6,0,75.1,0,112.7,0c9.7,0,17.4,6.1,19.8,14.5c2,8.9-0.8,16.2-8.1,21.4c-3.6,2.8-8.1,3.6-12.9,3.6c-42.8,0-85.6,0-128.4,0c-4,0-7.7-0.4-12.1-3.2c6.9-8.1,14.1-16.2,21-24.2C749.2,829.3,751.7,826.1,748.8,821.6C748.8,821.2,748.8,821.6,748.8,821.6z"/><path d="M715.7,637.5c0,60.2,0,120.3,0.4,180.5c0,4-1.2,8.5,1.6,12.1c-0.8,2-1.2,4-2,6.1c-0.8,1.2-1.2,1.2-2,0c0-63.8,0-127.6,0-191.4C714.1,642.4,713.7,639.5,715.7,637.5z"/><path d="M716.5,841.8c1.6,2.4,3.6,5.3,1.2,7.3c-1.2,1.2-2.4-2-2.8-3.6C715.7,844.7,714.5,842.6,716.5,841.8z"/><path d="M716.5,841.8c-0.4,1.2-1.2,2.4-1.6,3.6c0-3.2,0-6.5-0.4-9.7c0.8,0,1.2,0,2,0C716.1,838.2,716.1,839.8,716.5,841.8z"/></g>
</svg>