<?xml version="1.0" encoding="utf-8"?>
<!-- Svg Vector Icons : http://www.sfont.cn -->
<!DOCTYPE svg PUBLIC "-//W3C//DTD SVG 1.1//EN" "http://www.w3.org/Graphics/SVG/1.1/DTD/svg11.dtd">
<svg version="1.1" xmlns="http://www.w3.org/2000/svg" xmlns:xlink="http://www.w3.org/1999/xlink" x="0px" y="0px" viewBox="0 0 1000 1000" enable-background="new 0 0 1000 1000" xml:space="preserve">
<metadata> Svg Vector Icons : http://www.sfont.cn </metadata>
<g><path d="M867.5,879.4h-735C64.8,879.4,10,827.1,10,762.6V237.4c0-64.5,54.8-116.7,122.5-116.7h735c67.6,0,122.5,52.3,122.5,116.7v525.3C990,827.1,935.1,879.4,867.5,879.4L867.5,879.4z M132.2,816.1H866c33.6,0,60.8-21.3,60.8-53.5V373.6H73.2v379.4C73.2,785.1,98.5,816.1,132.2,816.1L132.2,816.1L132.2,816.1z M867.5,183.9H136.4c-33.8,0-63.2,31-63.2,63.2v63.2h853.5v-63.2C926.8,214.9,901.3,183.9,867.5,183.9L867.5,183.9z M166.3,531.6h298.6c16.5,0,29.9,14.2,29.9,31.6c0,17.5-13.4,31.6-29.9,31.6H166.3c-16.5,0-29.9-14.2-29.9-31.6C136.4,545.8,149.8,531.6,166.3,531.6L166.3,531.6z M168.1,658.1H421c17.5,0,31.6,14.1,31.6,31.6c0,17.5-14.2,31.6-31.6,31.6H168.1c-17.5,0-31.6-14.2-31.6-31.6C136.4,672.2,150.6,658.1,168.1,658.1L168.1,658.1z M584.3,531.6H644c16.5,0,29.9,14.2,29.9,31.6c0,17.5-13.4,31.6-29.9,31.6h-59.7c-16.5,0-29.9-14.2-29.9-31.6C554.4,545.8,567.8,531.6,584.3,531.6L584.3,531.6z"/></g>
</svg>