<?xml version="1.0" encoding="utf-8"?>
<!-- Svg Vector Icons : http://www.sfont.cn -->
<!DOCTYPE svg PUBLIC "-//W3C//DTD SVG 1.1//EN" "http://www.w3.org/Graphics/SVG/1.1/DTD/svg11.dtd">
<svg version="1.1" xmlns="http://www.w3.org/2000/svg" xmlns:xlink="http://www.w3.org/1999/xlink" x="0px" y="0px" viewBox="0 0 1000 1000" enable-background="new 0 0 1000 1000" xml:space="preserve">
<metadata> Svg Vector Icons : http://www.sfont.cn </metadata>
<g><path d="M678.5,905.8c-53.3,0-98.8-35.6-112.8-85.4H407.9c-14,49.8-59.5,85.4-112.8,85.4c-53.3,0-98.8-35.6-112.8-85.4H94.8c-46.2,0-83.8-39.5-83.8-88.1V551.1l-1,0V530c0-79.9,31.8-153.9,89.4-208.3c57.1-53.9,134.1-83.6,216.9-83.6c18.2,0,36.4,1.5,54.3,4.6v-70.6c0-42.9,34.6-77.9,77.2-77.9h465.1c42.6,0,77.2,34.9,77.2,77.9v560.2c0,48.6-37.6,88.1-83.8,88.1H791.3C777.3,870.2,731.8,905.8,678.5,905.8z M371.2,777.7h231.2l2.1,19c4.2,37.9,36,66.4,74,66.4c38,0,69.9-28.6,74-66.4l2.1-19h151.6c22.6,0,41.1-20.4,41.1-45.4V172.1c0-19.4-15.5-35.2-34.5-35.2H447.7c-19,0-34.4,15.8-34.4,35.2v114.3h-41.2l-2-0.4c-17.6-3.4-35.7-5.2-53.8-5.2c-140.3,0-251.7,98.6-262.7,228.1l0.1,0v223.3c0,25,18.4,45.4,41,45.4H219l2.1,19c4.2,37.9,36,66.4,74,66.4c38,0,69.8-28.6,74-66.4L371.2,777.7z"/><path d="M417,542H176.7v-42.7h197.6V376.4H417V542z"/></g>
</svg>