<?xml version="1.0" encoding="utf-8"?>
<!-- Svg Vector Icons : http://www.sfont.cn -->
<!DOCTYPE svg PUBLIC "-//W3C//DTD SVG 1.1//EN" "http://www.w3.org/Graphics/SVG/1.1/DTD/svg11.dtd">
<svg version="1.1" xmlns="http://www.w3.org/2000/svg" xmlns:xlink="http://www.w3.org/1999/xlink" x="0px" y="0px" viewBox="0 0 1000 1000" enable-background="new 0 0 1000 1000" xml:space="preserve">
<metadata> Svg Vector Icons : http://www.sfont.cn </metadata>
<g><path d="M500,10C230.5,10,10,230.5,10,500c0,269.4,220.5,490,490,490c269.5,0,490-220.5,490-490C990,230.5,769.5,10,500,10z M500,887.9c-213.4,0-387.9-174.6-387.9-387.9c0-213.4,174.6-387.9,387.9-387.9S887.9,286.7,887.9,500C887.9,713.3,713.4,887.9,500,887.9z M694.9,326.8l43.3,43.3c8,8,8,20.9,0,28.9l-231,231l-43.3,43.3c-2,2-4.3,3.5-6.8,4.5c0,0,0,0,0,0c-7.4,3-16.1,1.5-22.1-4.5l-43.3-43.3L261.8,500c-8-8-8-20.9,0-28.9l43.3-43.3c8-8,20.9-8,28.9,0l115.5,115.5L666,326.8C674,318.8,686.9,318.8,694.9,326.8z"/></g>
</svg>