<?xml version="1.0" encoding="utf-8"?>
<!-- Svg Vector Icons : http://www.sfont.cn -->
<!DOCTYPE svg PUBLIC "-//W3C//DTD SVG 1.1//EN" "http://www.w3.org/Graphics/SVG/1.1/DTD/svg11.dtd">
<svg version="1.1" xmlns="http://www.w3.org/2000/svg" xmlns:xlink="http://www.w3.org/1999/xlink" x="0px" y="0px" viewBox="0 0 1000 1000" enable-background="new 0 0 1000 1000" xml:space="preserve">
<metadata> Svg Vector Icons : http://www.sfont.cn </metadata>
<g><path d="M990,675h-0.5v-92.9c0.2-0.4,0.4-0.7,0.5-1h-0.5V459.2c0-61.9-87.9-112.8-201.3-119.9V137.2c0-66.7-102.1-120.8-228.1-120.8c-126,0-228.1,54.1-228.1,120.8v91.3c-28.7-6.9-60.4-10.8-93.9-10.8c-126,0-228.1,54.1-228.1,120.7v496.4l0.9,1.1H10c0,67.1,102.1,120.8,228.1,120.8c125.5,0,227.3-53.3,228-120c22.4,5.2,44.8,8.8,67.2,10.4v14.5l0.9,1.1h-0.9c0,67.1,102.1,120.8,228.1,120.8c126,0,228.1-53.7,228.1-120.8h-0.7l0.7-1.1v-91.8c0.2-0.3,0.4-0.7,0.5-1h-0.5V676C989.6,675.6,989.8,675.3,990,675z M935.8,794.2c-36,25.8-97.7,41.8-168.1,41.8c-79.5,0-148.1-20.4-180.8-52.3v-62.2c41.6,28.8,107,47.4,180.8,47.4c66.6,0,126.4-15.2,168.1-39.3V794.2z M734.5,339.3c-87,5.4-158.9,36.8-187.6,79c-26.9-1-53.8-4.9-80.7-11.3v-66.6c30.2,7.2,59.6,11.3,93.9,11.3c70.1,0,134.2-16.8,174.4-43.2V339.3z M935.8,700.2c-36,25.8-97.7,41.8-168.1,41.8c-79.5,0-148.1-20.4-180.8-52.3v-62.1c41.6,28.7,107,47.3,180.8,47.3c66.6,0,126.4-15.2,168.1-39.3V700.2z M533.3,459.2v52.5c-22.4-1.7-44.7-5.4-67.1-10.7v-39.7c0.2-0.3,0.4-0.7,0.5-1h-0.5v-26.1c23,5.4,45.9,8.9,68.9,10.5C534,449.5,533.3,454.3,533.3,459.2z M412.5,579.5c-36,25.8-97.7,41.8-168.1,41.8c-79.5,0-148.1-20.4-180.8-52.3v-62.1c41.6,28.7,107.1,47.4,180.8,47.4c66.6,0,126.4-15.2,168.1-39.3V579.5z M63.7,600.8c41.6,28.7,107.1,47.3,180.8,47.3c66.6,0,126.4-15.2,168.1-39.3v64.6c-36,25.8-97.7,41.8-168.1,41.8c-79.5,0-148.1-20.4-180.8-52.3V600.8z M466.2,555.2c0.2-0.3,0.4-0.7,0.5-1h-0.5v-26.1c22.4,5.2,44.7,8.8,67.1,10.4v67c-22.4-1.7-44.7-5.4-67.1-10.7V555.2z M935.8,606.3c-36,25.8-97.7,41.8-168.1,41.8c-79.5,0-148.1-20.4-180.8-52.3v-59c41.8,26.3,104.4,43,174.4,43s132.6-16.7,174.4-43V606.3z M412.5,485.6c-36,25.8-97.7,41.8-168.1,41.8c-79.5,0-148.1-20.4-180.8-52.3v-58.9c41.8,26.3,104.4,43,174.4,43c70,0,132.6-16.7,174.4-43V485.6z M63.7,694.7c41.6,28.7,107.1,47.3,180.8,47.3c66.6,0,126.4-15.2,168.1-39.3v64.6c-36,25.8-97.7,41.8-168.1,41.8c-79.5,0-148.1-20.4-180.8-52.3V694.7z M466.2,649.1c0.2-0.3,0.4-0.7,0.5-1h-0.5v-26.1c22.4,5.2,44.7,8.8,67.1,10.4v67c-22.4-1.7-44.7-5.4-67.1-10.7V649.1z M935.8,459.2c0,37-78.1,67.1-174.4,67.1c-96.3,0-174.4-30-174.4-67.1c0-37,78.1-67.1,174.4-67.1C857.7,392.1,935.8,422.1,935.8,459.2z M566.5,70.1c96.3,0,174.4,30,174.4,67.1c0,37-78.1,67.1-174.4,67.1c-96.3,0-174.4-30-174.4-67.1C392.1,100.1,470.1,70.1,566.5,70.1z M385.7,214.9c40.2,26.3,104.4,43,174.4,43c70,0,134.2-16.7,174.4-43v62.9C707.7,306,634.8,325,560.1,325c-37.3,0-67.7-4.9-99.6-13.1c-11-26-37.8-48.8-74.8-65.4V214.9z M238.1,271.3c96.3,0,174.4,30.1,174.4,67.1c0,37-78.1,67.1-174.4,67.1c-96.3,0-174.4-30-174.4-67.1C63.7,301.4,141.8,271.3,238.1,271.3z M238.1,903.1c-96.3,0-174.4-26.8-174.4-67.1v-47.3c41.6,28.7,107.1,47.3,180.8,47.3c66.6,0,126.4-15.2,168.1-39.3V836C412.5,876.2,334.4,903.1,238.1,903.1z M466.2,784.2v-41.1c0.2-0.3,0.4-0.7,0.5-1h-0.5V716c22.4,5.2,44.7,8.8,67.1,10.4v67.2C510.3,792.1,486.2,788.8,466.2,784.2z M761.4,929.9c-96.3,0-174.4-26.8-174.4-67.1v-47.4c41.6,28.8,107,47.4,180.8,47.4c66.6,0,126.4-15.2,168.1-39.3v39.3C935.8,903.1,857.7,929.9,761.4,929.9z"/></g>
</svg>