<?xml version="1.0" encoding="utf-8"?>
<!-- Svg Vector Icons : http://www.sfont.cn -->
<!DOCTYPE svg PUBLIC "-//W3C//DTD SVG 1.1//EN" "http://www.w3.org/Graphics/SVG/1.1/DTD/svg11.dtd">
<svg version="1.1" xmlns="http://www.w3.org/2000/svg" xmlns:xlink="http://www.w3.org/1999/xlink" x="0px" y="0px" viewBox="0 0 1000 1000" enable-background="new 0 0 1000 1000" xml:space="preserve">
<metadata> Svg Vector Icons : http://www.sfont.cn </metadata>
<g><path d="M489.2,990.3c-8.9-0.7-17.8-1.4-26.6-2.1c-56.1-4.2-109.8-17.8-161-40.9C200.8,901.8,123.5,830.5,69.8,733.9c-30.4-54.7-49-113.4-56.3-175.6C2.6,464.2,17,374.2,58,288.9c36-75,88.1-136.9,155.5-185.7c57-41.3,120-68.9,188.8-83.3c32.3-6.8,65.1-10,98.2-10.1c27.6-0.1,48.8,19.6,49.5,47c0.7,25.1-17.9,45.4-41.2,47.9c-15.2,1.6-30.6,1.5-45.8,3c-77.8,7.7-147.5,35.9-208.4,84.8c-72.4,58.2-120.1,132.6-139.2,223.6C90,537.9,116,648.8,193.6,746.2c61.3,76.9,141.5,124,238.4,141.4c85.6,15.4,167.9,3.7,246.1-34.4c54.4-26.6,99.9-64.4,137-112.3c8-10.3,17-18.9,30.2-22c20.9-4.9,40.7,2.9,52.6,21c10.7,16.2,9.4,38.7-3.2,55.2c-52.5,68.7-118.1,120.8-197.6,155.1c-41.8,18.1-85.5,29.9-130.7,35.4c-15.3,1.9-30.8,2.5-46.2,3.7c-2,0.2-3.9,0.6-5.9,0.8C506,990.3,497.6,990.3,489.2,990.3z"/><path d="M989.9,507.5c-0.3,38.4-6,78.2-16.1,117.3c-4.7,18.3-15.8,30.7-33.9,35.9c-18.1,5.1-34.4,0.6-47.6-12.8c-12.1-12.3-16.1-27.5-12.1-44.3c5.9-25.2,10.8-50.5,12.6-76.4c4.2-58.7-4.5-115.5-25.8-170.3c-18.7-48.2-46.1-91.2-81.9-128.6c-38.7-40.4-83.9-71.4-135.6-92.8c-15.8-6.5-26.7-17.3-31.3-34c-8.4-30.4,17.7-62.1,49-59.2c6.4,0.6,13,2.1,18.9,4.6c95.4,39.8,171.6,102.8,227.5,189.9c35.8,55.9,58.9,116.7,69.8,182.2C988.2,447.6,990.5,476.5,989.9,507.5z"/><path d="M546.7,506.1c3.1,0,5.3,0,7.4,0c43.4,0,86.7,0,130.1,0c13.4,0,25.6,3.4,35.5,12.8c13.9,13.2,18.8,29.4,13.8,47.8c-5.3,19.3-18.6,30.8-38.3,34.4c-4.6,0.8-9.4,1-14.1,1c-59.9,0.1-119.9,0.1-179.8,0c-20.7,0-37-8.4-45.8-27.6c-3.3-7.2-4.9-15.8-5-23.7c-0.3-85.4-0.3-170.9-0.2-256.3c0-25,13.1-42.9,35.8-49.5c27.8-8.1,57.6,12.5,59.9,41.4c0.4,5.1,0.6,10.2,0.6,15.3c0,65.6,0,131.2,0,196.7C546.7,500.7,546.7,503.1,546.7,506.1z"/></g>
</svg>