<?xml version="1.0" encoding="utf-8"?>
<!-- Svg Vector Icons : http://www.sfont.cn -->
<!DOCTYPE svg PUBLIC "-//W3C//DTD SVG 1.1//EN" "http://www.w3.org/Graphics/SVG/1.1/DTD/svg11.dtd">
<svg version="1.1" xmlns="http://www.w3.org/2000/svg" xmlns:xlink="http://www.w3.org/1999/xlink" x="0px" y="0px" viewBox="0 0 1000 1000" enable-background="new 0 0 1000 1000" xml:space="preserve">
<metadata> Svg Vector Icons : http://www.sfont.cn </metadata>
<g><g transform="translate(0.000000,421.000000) scale(0.100000,-0.100000)"><path d="M2546.2,2159.6C1201.1,1554.3,100,1052.8,100,1045.1c0-15.4,192.2-474.6,205.6-491.9c3.8-5.8,46.1,9.6,92.2,32.7c48,23.1,96.1,42.3,105.7,42.3c13.5,0,19.2-972.3,19.2-2728.6v-2728.6h499.6H1522v2757.5V685.7h3478h3478v-2757.5v-2757.5h499.6h499.6v2728.6c0,1875.5,5.8,2728.6,19.2,2728.6c11.5,0,55.7-17.3,98-38.4c42.3-23.1,82.6-34.6,92.2-30.7c17.3,11.5,213.3,459.3,213.3,486.2c0,11.5-4765.5,2163.7-4880.8,2204C5003.8,3254.9,3889.3,2764.9,2546.2,2159.6z"/><path d="M1804.4,460.9c-7.7-5.8-13.5-74.9-13.5-153.7V166.9h3209h3210.9l-5.8,149.9l-5.8,148l-3191.7,5.8C3253.3,472.4,1810.2,468.6,1804.4,460.9z"/><path d="M1798.7-52.1c-5.8-13.5-7.7-80.7-3.8-148l5.8-123H5000h3199.4V-179v144.1l-3195.6,5.8C2327.1-25.2,1808.3-29.1,1798.7-52.1z"/><path d="M1798.7-551.7c-5.8-13.5-7.7-80.7-3.8-148l5.8-123H5000h3199.4v144.1v144.1l-3195.6,5.8C2327.1-524.8,1808.3-528.7,1798.7-551.7z"/><path d="M2736.4-2335l5.8-755.2l995.4-5.8l993.5-3.8v759v759h-999.2h-999.2L2736.4-2335z"/><path d="M5003.8-2335l5.8-755.2l995.4-5.8l993.5-3.8v759v759h-999.2H5000L5003.8-2335z"/><path d="M1733.3-4070.1v-759h999.2h999.2v759v759h-999.2h-999.2V-4070.1z"/><path d="M4000.8-4070.1v-759H5000h999.2v759v759H5000h-999.2V-4070.1z"/><path d="M6268.2-4070.1v-759h999.2h999.2v759v759h-999.2h-999.2V-4070.1z"/></g></g>
</svg>