<?xml version="1.0" encoding="utf-8"?>
<!-- Svg Vector Icons : http://www.sfont.cn -->
<!DOCTYPE svg PUBLIC "-//W3C//DTD SVG 1.1//EN" "http://www.w3.org/Graphics/SVG/1.1/DTD/svg11.dtd">
<svg version="1.1" xmlns="http://www.w3.org/2000/svg" xmlns:xlink="http://www.w3.org/1999/xlink" x="0px" y="0px" viewBox="0 0 1000 1000" enable-background="new 0 0 1000 1000" xml:space="preserve">
<metadata> Svg Vector Icons : http://www.sfont.cn </metadata>
<g><path d="M332,262h336c16.8,0,28-11.2,28-28V122H584V94c0-47.6-36.4-84-84-84c-47.6,0-84,36.4-84,84v28H304v112C304,250.8,315.2,262,332,262L332,262z M500,66c16.8,0,28,11.2,28,28c0,16.8-11.2,28-28,28c-16.8,0-28-11.2-28-28C472,77.2,483.2,66,500,66z"/><path d="M836,122h-84v140c0,30.8-25.2,56-56,56H304c-30.8,0-56-25.2-56-56V122h-84c-47.6,0-84,36.4-84,84v700c0,47.6,36.4,84,84,84h672c47.6,0,84-36.4,84-84V206C920,158.4,883.6,122,836,122L836,122z M332,850H220V738h112V850z M332,682H220V570h112V682z M332,514H220V402h112V514z M780,822H388v-56h392V822z M780,654H388v-56h392V654z M780,486H388v-56h392V486z"/></g>
</svg>